<svg width="130" height="130" viewBox="0 0 130 130" fill="none" xmlns="http://www.w3.org/2000/svg">
<path d="M116.116 64.9946C122.658 22.8371 91.8489 14.5689 66.9569 14.5689C42.065 14.569 44.6109 32.1745 17.2699 41.4327C-10.0711 50.6909 23.8786 71.4932 23.8786 107.152C23.8786 142.811 109.575 107.152 116.116 64.9946Z" fill="#4F93E5"/>
<g clip-path="url(#clip0_193_1617)">
<path d="M121.176 96.5334C121.176 102.795 115.885 107.924 109.29 107.924C102.696 107.924 97.4043 102.795 97.4043 96.5334C97.4043 90.2718 102.696 85.1431 109.29 85.1431C115.885 85.1431 121.176 90.2718 121.176 96.5334Z" fill="white" stroke="black" stroke-width="2"/>
<path d="M121.176 66.4723C121.176 72.7338 115.885 77.8626 109.29 77.8626C102.696 77.8626 97.4043 72.7338 97.4043 66.4723C97.4043 60.2108 102.696 55.082 109.29 55.082C115.885 55.082 121.176 60.2108 121.176 66.4723Z" fill="white" stroke="black" stroke-width="2"/>
<path d="M121.176 36.4117C121.176 42.6732 115.885 47.802 109.29 47.802C102.696 47.802 97.4043 42.6732 97.4043 36.4117C97.4043 30.1502 102.696 25.0215 109.29 25.0215C115.885 25.0215 121.176 30.1502 121.176 36.4117Z" fill="white" stroke="black" stroke-width="2"/>
<path d="M89.891 96.5334C89.891 102.795 84.5995 107.924 78.0051 107.924C71.4108 107.924 66.1191 102.795 66.1191 96.5334C66.1191 90.2718 71.4108 85.1431 78.0051 85.1431C84.5995 85.1431 89.891 90.2718 89.891 96.5334Z" fill="white" stroke="black" stroke-width="2"/>
<path d="M89.891 66.4723C89.891 72.7338 84.5995 77.8626 78.0051 77.8626C71.4108 77.8626 66.1191 72.7338 66.1191 66.4723C66.1191 60.2108 71.4108 55.082 78.0051 55.082C84.5995 55.082 89.891 60.2108 89.891 66.4723Z" fill="white" stroke="black" stroke-width="2"/>
<path d="M89.891 36.4117C89.891 42.6732 84.5995 47.802 78.0051 47.802C71.4108 47.802 66.1191 42.6732 66.1191 36.4117C66.1191 30.1502 71.4108 25.0215 78.0051 25.0215C84.5995 25.0215 89.891 30.1502 89.891 36.4117Z" fill="white" stroke="black" stroke-width="2"/>
<path d="M58.6064 96.5334C58.6064 102.795 53.3147 107.924 46.7204 107.924C40.1261 107.924 34.8345 102.795 34.8345 96.5334C34.8345 90.2718 40.1261 85.1431 46.7204 85.1431C53.3147 85.1431 58.6064 90.2718 58.6064 96.5334Z" fill="white" stroke="black" stroke-width="2"/>
<path d="M58.6064 66.4723C58.6064 72.7338 53.3147 77.8626 46.7204 77.8626C40.1261 77.8626 34.8345 72.7338 34.8345 66.4723C34.8345 60.2108 40.1261 55.082 46.7204 55.082C53.3147 55.082 58.6064 60.2108 58.6064 66.4723Z" fill="white" stroke="black" stroke-width="2"/>
<path d="M58.6064 36.4117C58.6064 42.6732 53.3147 47.802 46.7204 47.802C40.1261 47.802 34.8345 42.6732 34.8345 36.4117C34.8345 30.1502 40.1261 25.0215 46.7204 25.0215C53.3147 25.0215 58.6064 30.1502 58.6064 36.4117Z" fill="white" stroke="black" stroke-width="2"/>
<path d="M81.9738 60.7559H74.7571C74.6467 60.7559 74.5571 60.8454 74.5571 60.9559V65.9998M81.9738 71.2437H74.7571C74.6467 71.2437 74.5571 71.1541 74.5571 71.0437V65.9998M74.5571 65.9998H80.8328" stroke="black" stroke-width="2" stroke-linecap="round"/>
<path d="M81.9738 91.1709H74.7571C74.6467 91.1709 74.5571 91.2604 74.5571 91.3709V96.4148M81.9738 101.659H74.7571C74.6467 101.659 74.5571 101.569 74.5571 101.459V96.4148M74.5571 96.4148H80.8328" stroke="black" stroke-width="2" stroke-linecap="round"/>
<path d="M52.3072 36.634C52.3072 39.5214 49.9442 41.8779 47.0095 41.8779C44.0748 41.8779 41.7119 39.5214 41.7119 36.634C41.7119 33.7467 44.0748 31.3901 47.0095 31.3901C49.9442 31.3901 52.3072 33.7467 52.3072 36.634Z" stroke="black" stroke-width="2"/>
<path d="M106.343 41.8779C106.343 41.8779 106.343 31.8966 106.343 31.4844C106.343 31.0723 113.123 31.9284 113.688 35.719C114.606 41.8782 106.343 41.8779 106.343 41.8779Z" stroke="black" stroke-width="2" stroke-linecap="round"/>
<path d="M42.7715 71.2437V61.3851C42.7715 61.19 43.0222 61.1103 43.1348 61.2696L49.8249 70.7299C49.9375 70.8892 50.1882 70.8095 50.1882 70.6145V60.7559" stroke="black" stroke-width="2" stroke-linecap="round"/>
</g>
<path d="M105.236 62H109.236M113.236 62H109.236M109.236 62V72" stroke="black" stroke-width="2" stroke-linecap="round"/>
<path d="M105.236 91H109.236M113.236 91H109.236M109.236 91V102" stroke="black" stroke-width="2" stroke-linecap="round"/>
<path d="M41.2358 92H45.7358M50.2358 92H45.7358M45.7358 92V103" stroke="black" stroke-width="2" stroke-linecap="round"/>
<path d="M74.2358 42V35.7523M74.2358 35.7523L81.2358 41.6071M74.2358 35.7523C74.2358 35.7523 74.2358 31.7149 74.2358 31.2902C74.2358 30.8656 82.2358 30.5443 82.2358 33.0756C82.2358 36.6446 74.2358 35.7523 74.2358 35.7523Z" stroke="black" stroke-width="2" stroke-linecap="round"/>
<defs>
<clipPath id="clip0_193_1617">
<rect width="89" height="86" fill="white" transform="translate(33.2358 23)"/>
</clipPath>
</defs>
</svg>
