<svg width="129" height="170" viewBox="0 0 129 170" fill="none" xmlns="http://www.w3.org/2000/svg">
<line x1="25.1386" y1="26.4841" x2="54.1386" y2="90.4841" stroke="#E70000" stroke-width="2.5"/>
<line x1="107.25" y1="75" x2="107.25" y2="87" stroke="#BFE069" stroke-width="2.5"/>
<path d="M128.25 102.5C128.25 113.374 118.994 122.25 107.5 122.25C96.006 122.25 86.75 113.374 86.75 102.5C86.75 91.6256 96.006 82.75 107.5 82.75C118.994 82.75 128.25 91.6256 128.25 102.5Z" fill="white" stroke="#BFE069" stroke-width="1.5"/>
<path d="M33.75 16.5C33.75 24.8541 26.5449 31.75 17.5 31.75C8.45506 31.75 1.25 24.8541 1.25 16.5C1.25 8.14593 8.45506 1.25 17.5 1.25C26.5449 1.25 33.75 8.14593 33.75 16.5Z" fill="#BFE069" stroke="#BFE069" stroke-width="2.5"/>
<path d="M78.75 16.5C78.75 24.8541 71.5449 31.75 62.5 31.75C53.4551 31.75 46.25 24.8541 46.25 16.5C46.25 8.14593 53.4551 1.25 62.5 1.25C71.5449 1.25 78.75 8.14593 78.75 16.5Z" fill="#BFE069" stroke="#BFE069" stroke-width="2.5"/>
<path d="M123.75 59.5C123.75 67.8541 116.545 74.75 107.5 74.75C98.4551 74.75 91.25 67.8541 91.25 59.5C91.25 51.1459 98.4551 44.25 107.5 44.25C116.545 44.25 123.75 51.1459 123.75 59.5Z" fill="#BFE069" stroke="#BFE069" stroke-width="2.5"/>
<path d="M123.75 102.5C123.75 110.854 116.545 117.75 107.5 117.75C98.4551 117.75 91.25 110.854 91.25 102.5C91.25 94.1459 98.4551 87.25 107.5 87.25C116.545 87.25 123.75 94.1459 123.75 102.5Z" fill="#BFE069" stroke="#BFE069" stroke-width="2.5"/>
<line x1="33.9951" y1="17" x2="46.028" y2="17" stroke="#BFE069" stroke-width="2.5"/>
<line x1="75" y1="102.75" x2="87.0329" y2="102.75" stroke="#BFE069" stroke-width="2.5"/>
<line x1="75.8839" y1="26.1161" x2="96.8839" y2="47.1161" stroke="#BFE069" stroke-width="2.5"/>
<path d="M124.25 16.5C124.25 25.1575 116.793 32.25 107.5 32.25C98.207 32.25 90.75 25.1575 90.75 16.5C90.75 7.84248 98.207 0.75 107.5 0.75C116.793 0.75 124.25 7.84248 124.25 16.5Z" fill="white" stroke="#EFEDED" stroke-width="1.5"/>
<path d="M34.25 59.5C34.25 68.1575 26.793 75.25 17.5 75.25C8.20704 75.25 0.75 68.1575 0.75 59.5C0.75 50.8425 8.20704 43.75 17.5 43.75C26.793 43.75 34.25 50.8425 34.25 59.5Z" fill="white" stroke="#EFEDED" stroke-width="1.5"/>
<path d="M79.25 59.5C79.25 68.1575 71.793 75.25 62.5 75.25C53.207 75.25 45.75 68.1575 45.75 59.5C45.75 50.8425 53.207 43.75 62.5 43.75C71.793 43.75 79.25 50.8425 79.25 59.5Z" fill="white" stroke="#EFEDED" stroke-width="1.5"/>
<path d="M34 102.5C34 111.006 26.6689 118 17.5 118C8.33105 118 1 111.006 1 102.5C1 93.9942 8.33105 87 17.5 87C26.6689 87 34 93.9942 34 102.5Z" fill="white" stroke="#EFEDED" stroke-width="2"/>
<path d="M17.016 20.496C17.7413 20.496 18.2693 20.3733 18.6 20.128C18.9307 19.8827 19.096 19.536 19.096 19.088C19.096 18.8213 19.0373 18.592 18.92 18.4C18.8133 18.208 18.6533 18.0373 18.44 17.888C18.2373 17.728 17.9867 17.584 17.688 17.456C17.3893 17.3173 17.048 17.184 16.664 17.056C16.28 16.9173 15.9067 16.768 15.544 16.608C15.192 16.4373 14.8773 16.2293 14.6 15.984C14.3333 15.7387 14.1147 15.4453 13.944 15.104C13.784 14.7627 13.704 14.352 13.704 13.872C13.704 12.8693 14.0507 12.0853 14.744 11.52C15.4373 10.944 16.3813 10.656 17.576 10.656C18.2693 10.656 18.8827 10.736 19.416 10.896C19.96 11.0453 20.3867 11.2107 20.696 11.392L20.072 13.024C19.7093 12.8213 19.3093 12.6667 18.872 12.56C18.4453 12.4533 18.0027 12.4 17.544 12.4C17 12.4 16.5733 12.512 16.264 12.736C15.9653 12.96 15.816 13.2747 15.816 13.68C15.816 13.9253 15.864 14.1387 15.96 14.32C16.0667 14.4907 16.2107 14.6453 16.392 14.784C16.584 14.9227 16.8027 15.0507 17.048 15.168C17.304 15.2853 17.5813 15.3973 17.88 15.504C18.4027 15.696 18.8667 15.8933 19.272 16.096C19.688 16.288 20.0347 16.5227 20.312 16.8C20.6 17.0667 20.8187 17.3867 20.968 17.76C21.1173 18.1227 21.192 18.5653 21.192 19.088C21.192 20.0907 20.8347 20.8693 20.12 21.424C19.416 21.968 18.3813 22.24 17.016 22.24C16.5573 22.24 16.136 22.208 15.752 22.144C15.3787 22.0907 15.0427 22.0213 14.744 21.936C14.456 21.8507 14.2053 21.7653 13.992 21.68C13.7787 21.584 13.608 21.4987 13.48 21.424L14.072 19.776C14.36 19.936 14.7493 20.096 15.24 20.256C15.7307 20.416 16.3227 20.496 17.016 20.496Z" fill="black"/>
<path d="M78.75 103.5C78.75 111.854 71.5449 118.75 62.5 118.75C53.4551 118.75 46.25 111.854 46.25 103.5C46.25 95.1459 53.4551 88.25 62.5 88.25C71.5449 88.25 78.75 95.1459 78.75 103.5Z" fill="#BFE069" stroke="#BFE069" stroke-width="2.5"/>
<path d="M58.328 108V96.912H65.448V98.624H60.344V101.36H64.888V103.04H60.344V106.288H65.832V108H58.328Z" fill="black"/>
<path d="M61.464 10.8C63.0747 10.8 64.3067 11.0933 65.16 11.68C66.024 12.2667 66.456 13.184 66.456 14.432C66.456 15.0827 66.3387 15.6427 66.104 16.112C65.88 16.5707 65.5493 16.9493 65.112 17.248C64.6747 17.536 64.1413 17.7493 63.512 17.888C62.8827 18.0267 62.1627 18.096 61.352 18.096H60.344V22H58.328V11.072C58.7973 10.9653 59.3147 10.896 59.88 10.864C60.456 10.8213 60.984 10.8 61.464 10.8ZM61.608 12.544C61.096 12.544 60.6747 12.56 60.344 12.592V16.368H61.32C62.2907 16.368 63.0373 16.2347 63.56 15.968C64.0827 15.6907 64.344 15.1733 64.344 14.416C64.344 14.0533 64.2747 13.7493 64.136 13.504C63.9973 13.2587 63.8053 13.0667 63.56 12.928C63.3147 12.7893 63.0213 12.6933 62.68 12.64C62.3493 12.576 61.992 12.544 61.608 12.544Z" fill="black"/>
<path d="M106.328 53.912H108.344V65H106.328V53.912Z" fill="black"/>
<path d="M111.336 106.256V108H104.328V96.912H106.344V106.256H111.336Z" fill="black"/>
<rect x="53" y="154" width="28" height="16" rx="8" fill="#E70000"/>
<rect width="10.7637" height="1.67273" rx="0.836367" transform="matrix(0.634948 0.772555 -0.681212 0.732086 64.1396 156.823)" fill="white"/>
<rect width="10.7651" height="1.71501" rx="0.857504" transform="matrix(-0.634187 0.77318 -0.681946 -0.731403 71 158.078)" fill="white"/>
<line y1="150.5" x2="125" y2="150.5" stroke="black"/>
<rect x="1" y="132" width="16" height="14" rx="3" fill="#BFE069"/>
<rect x="19" y="132" width="16" height="14" rx="3" fill="#BFE069"/>
<rect x="37" y="132" width="16" height="14" rx="3" fill="#BFE069"/>
<rect x="55" y="132" width="16" height="14" rx="3" fill="#BFE069"/>
<rect x="73" y="132" width="16" height="14" rx="3" fill="#BFE069"/>
<rect x="91" y="132" width="16" height="14" rx="3" fill="#BFE069"/>
<rect x="109" y="132" width="16" height="14" rx="3" fill="#E70000"/>
<path d="M9.012 141.872C9.556 141.872 9.952 141.78 10.2 141.596C10.448 141.412 10.572 141.152 10.572 140.816C10.572 140.616 10.528 140.444 10.44 140.3C10.36 140.156 10.24 140.028 10.08 139.916C9.928 139.796 9.74 139.688 9.516 139.592C9.292 139.488 9.036 139.388 8.748 139.292C8.46 139.188 8.18 139.076 7.908 138.956C7.644 138.828 7.408 138.672 7.2 138.488C7 138.304 6.836 138.084 6.708 137.828C6.588 137.572 6.528 137.264 6.528 136.904C6.528 136.152 6.788 135.564 7.308 135.14C7.828 134.708 8.536 134.492 9.432 134.492C9.952 134.492 10.412 134.552 10.812 134.672C11.22 134.784 11.54 134.908 11.772 135.044L11.304 136.268C11.032 136.116 10.732 136 10.404 135.92C10.084 135.84 9.752 135.8 9.408 135.8C9 135.8 8.68 135.884 8.448 136.052C8.224 136.22 8.112 136.456 8.112 136.76C8.112 136.944 8.148 137.104 8.22 137.24C8.3 137.368 8.408 137.484 8.544 137.588C8.688 137.692 8.852 137.788 9.036 137.876C9.228 137.964 9.436 138.048 9.66 138.128C10.052 138.272 10.4 138.42 10.704 138.572C11.016 138.716 11.276 138.892 11.484 139.1C11.7 139.3 11.864 139.54 11.976 139.82C12.088 140.092 12.144 140.424 12.144 140.816C12.144 141.568 11.876 142.152 11.34 142.568C10.812 142.976 10.036 143.18 9.012 143.18C8.668 143.18 8.352 143.156 8.064 143.108C7.784 143.068 7.532 143.016 7.308 142.952C7.092 142.888 6.904 142.824 6.744 142.76C6.584 142.688 6.456 142.624 6.36 142.568L6.804 141.332C7.02 141.452 7.312 141.572 7.68 141.692C8.048 141.812 8.492 141.872 9.012 141.872Z" fill="black"/>
<path d="M26.348 134.6C27.556 134.6 28.48 134.82 29.12 135.26C29.768 135.7 30.092 136.388 30.092 137.324C30.092 137.812 30.004 138.232 29.828 138.584C29.66 138.928 29.412 139.212 29.084 139.436C28.756 139.652 28.356 139.812 27.884 139.916C27.412 140.02 26.872 140.072 26.264 140.072H25.508V143H23.996V134.804C24.348 134.724 24.736 134.672 25.16 134.648C25.592 134.616 25.988 134.6 26.348 134.6ZM26.456 135.908C26.072 135.908 25.756 135.92 25.508 135.944V138.776H26.24C26.968 138.776 27.528 138.676 27.92 138.476C28.312 138.268 28.508 137.88 28.508 137.312C28.508 137.04 28.456 136.812 28.352 136.628C28.248 136.444 28.104 136.3 27.92 136.196C27.736 136.092 27.516 136.02 27.26 135.98C27.012 135.932 26.744 135.908 26.456 135.908Z" fill="black"/>
<path d="M43.996 134.684H45.508V143H43.996V134.684Z" fill="black"/>
<path d="M66.252 141.692V143H60.996V134.684H62.508V141.692H66.252Z" fill="black"/>
<path d="M84.252 141.692V143H78.996V134.684H80.508V141.692H84.252Z" fill="black"/>
<path d="M95.996 143V134.684H101.336V135.968H97.508V138.02H100.916V139.28H97.508V141.716H101.624V143H95.996Z" fill="black"/>
<path d="M117.012 141.872C117.556 141.872 117.952 141.78 118.2 141.596C118.448 141.412 118.572 141.152 118.572 140.816C118.572 140.616 118.528 140.444 118.44 140.3C118.36 140.156 118.24 140.028 118.08 139.916C117.928 139.796 117.74 139.688 117.516 139.592C117.292 139.488 117.036 139.388 116.748 139.292C116.46 139.188 116.18 139.076 115.908 138.956C115.644 138.828 115.408 138.672 115.2 138.488C115 138.304 114.836 138.084 114.708 137.828C114.588 137.572 114.528 137.264 114.528 136.904C114.528 136.152 114.788 135.564 115.308 135.14C115.828 134.708 116.536 134.492 117.432 134.492C117.952 134.492 118.412 134.552 118.812 134.672C119.22 134.784 119.54 134.908 119.772 135.044L119.304 136.268C119.032 136.116 118.732 136 118.404 135.92C118.084 135.84 117.752 135.8 117.408 135.8C117 135.8 116.68 135.884 116.448 136.052C116.224 136.22 116.112 136.456 116.112 136.76C116.112 136.944 116.148 137.104 116.22 137.24C116.3 137.368 116.408 137.484 116.544 137.588C116.688 137.692 116.852 137.788 117.036 137.876C117.228 137.964 117.436 138.048 117.66 138.128C118.052 138.272 118.4 138.42 118.704 138.572C119.016 138.716 119.276 138.892 119.484 139.1C119.7 139.3 119.864 139.54 119.976 139.82C120.088 140.092 120.144 140.424 120.144 140.816C120.144 141.568 119.876 142.152 119.34 142.568C118.812 142.976 118.036 143.18 117.012 143.18C116.668 143.18 116.352 143.156 116.064 143.108C115.784 143.068 115.532 143.016 115.308 142.952C115.092 142.888 114.904 142.824 114.744 142.76C114.584 142.688 114.456 142.624 114.36 142.568L114.804 141.332C115.02 141.452 115.312 141.572 115.68 141.692C116.048 141.812 116.492 141.872 117.012 141.872Z" fill="white"/>
</svg>
