<svg width="125" height="166" viewBox="0 0 125 166" fill="none" xmlns="http://www.w3.org/2000/svg">
<line x1="0.000118642" y1="147.5" x2="125" y2="147.53" stroke="black"/>
<path d="M36.75 16.5C36.75 24.8541 29.5449 31.75 20.5 31.75C11.4551 31.75 4.25 24.8541 4.25 16.5C4.25 8.14593 11.4551 1.25 20.5 1.25C29.5449 1.25 36.75 8.14593 36.75 16.5Z" fill="white" stroke="#BFE069" stroke-width="2.5"/>
<path d="M79.75 16.5C79.75 24.8541 72.5449 31.75 63.5 31.75C54.4551 31.75 47.25 24.8541 47.25 16.5C47.25 8.14593 54.4551 1.25 63.5 1.25C72.5449 1.25 79.75 8.14593 79.75 16.5Z" fill="white" stroke="#BFE069" stroke-width="2.5"/>
<path d="M122.75 57.5C122.75 65.8541 115.545 72.75 106.5 72.75C97.4551 72.75 90.25 65.8541 90.25 57.5C90.25 49.1459 97.4551 42.25 106.5 42.25C115.545 42.25 122.75 49.1459 122.75 57.5Z" fill="white" stroke="#BFE069" stroke-width="2.5"/>
<path d="M122.75 98.5C122.75 106.854 115.545 113.75 106.5 113.75C97.4551 113.75 90.25 106.854 90.25 98.5C90.25 90.1459 97.4551 83.25 106.5 83.25C115.545 83.25 122.75 90.1459 122.75 98.5Z" fill="white" stroke="#BFE069" stroke-width="2.5"/>
<line x1="37.998" y1="16.875" x2="46.0297" y2="16.875" stroke="#BFE069" stroke-width="2.5"/>
<line x1="75.8839" y1="26.1161" x2="95.8839" y2="46.1161" stroke="#BFE069" stroke-width="2.5"/>
<line x1="106.25" y1="72" x2="106.25" y2="84" stroke="#BFE069" stroke-width="2.5"/>
<path d="M123 16.5C123 25.0058 115.669 32 106.5 32C97.3311 32 90 25.0058 90 16.5C90 7.99421 97.3311 1 106.5 1C115.669 1 123 7.99421 123 16.5Z" fill="white" stroke="#EFEDED" stroke-width="2"/>
<path d="M37 57.5C37 66.0058 29.6689 73 20.5 73C11.3311 73 4 66.0058 4 57.5C4 48.9942 11.3311 42 20.5 42C29.6689 42 37 48.9942 37 57.5Z" fill="white" stroke="#EFEDED" stroke-width="2"/>
<path d="M80 57.5C80 66.0058 72.6689 73 63.5 73C54.3311 73 47 66.0058 47 57.5C47 48.9942 54.3311 42 63.5 42C72.6689 42 80 48.9942 80 57.5Z" fill="white" stroke="#EFEDED" stroke-width="2"/>
<path d="M37 98.5C37 107.006 29.6689 114 20.5 114C11.3311 114 4 107.006 4 98.5C4 89.9942 11.3311 83 20.5 83C29.6689 83 37 89.9942 37 98.5Z" fill="white" stroke="#EFEDED" stroke-width="2"/>
<path d="M80 98.5C80 107.006 72.6689 114 63.5 114C54.3311 114 47 107.006 47 98.5C47 89.9942 54.3311 83 63.5 83C72.6689 83 80 89.9942 80 98.5Z" fill="white" stroke="#EFEDED" stroke-width="2"/>
<path d="M63.712 103.14C66.75 103.14 68.752 100.942 68.752 98.016V97.904C68.752 94.964 66.694 92.85 63.712 92.85C60.744 92.85 58.644 95.02 58.644 97.946V98.058C58.644 100.942 60.646 103.14 63.712 103.14ZM63.74 101.642C61.92 101.642 60.59 100.228 60.59 98.044V97.932C60.59 95.776 61.752 94.334 63.712 94.334C65.672 94.334 66.82 95.86 66.82 97.918V98.03C66.82 100.2 65.63 101.642 63.74 101.642Z" fill="black"/>
<path d="M20.642 21.14C23.47 21.14 25.206 19.46 25.206 16.688V15.764H20.852V17.164H23.372C23.316 18.55 22.546 19.684 20.67 19.684C18.57 19.684 17.576 18.214 17.576 16.072V15.96C17.576 13.762 18.71 12.306 20.67 12.306C21.972 12.306 22.868 12.88 23.092 14.21H24.954C24.688 11.816 22.784 10.836 20.642 10.836C17.716 10.836 15.644 12.964 15.644 15.946V16.058C15.644 19.012 17.436 21.14 20.642 21.14Z" fill="black"/>
<path d="M15.148 62H16.828V54.44L19.866 62H20.468L23.45 54.44V62H25.312V51.99H22.848L20.272 58.822L17.64 51.99H15.148V62Z" fill="black"/>
<path d="M59.148 62H61.01V57.324L64.86 62H67.058L62.704 56.764L66.848 51.99H64.846L61.01 56.526V51.99H59.148V62Z" fill="black"/>
<path d="M60.148 21H66.28V19.516H62.01V10.99H60.148V21Z" fill="black"/>
<path d="M102.378 62H104.128L104.912 59.522H108.734L109.532 62H111.464L108.16 51.99H105.724L102.378 62ZM106.83 53.516L108.3 58.164H105.346L106.83 53.516Z" fill="black"/>
<path d="M17.148 103H23.644V101.53H19.01V98.604H22.538V97.204H19.01V94.46H23.406V92.99H17.148V103Z" fill="black"/>
<path d="M103.148 103H106.158C109.672 103 111.366 100.928 111.366 98.016V97.89C111.366 94.978 109.672 92.99 106.186 92.99H103.148V103ZM105.01 101.53V94.46H106.088C108.44 94.46 109.42 95.762 109.42 97.918V98.03C109.42 100.242 108.342 101.53 106.102 101.53H105.01Z" fill="black"/>
<path d="M105.204 21H107.08V10.99H105.204V21Z" fill="black"/>
<rect x="30" y="131" width="16" height="14" rx="3" fill="#BFE069"/>
<rect x="48" y="131" width="16" height="14" rx="3" fill="#BFE069"/>
<rect x="66" y="131" width="16" height="14" rx="3" fill="#BFE069"/>
<rect x="84" y="131" width="16" height="14" rx="3" fill="#BFE069"/>
<path d="M38.03 141.1C40.05 141.1 41.29 139.9 41.29 137.92V137.26H38.18V138.26H39.98C39.94 139.25 39.39 140.06 38.05 140.06C36.55 140.06 35.84 139.01 35.84 137.48V137.4C35.84 135.83 36.65 134.79 38.05 134.79C38.98 134.79 39.62 135.2 39.78 136.15H41.11C40.92 134.44 39.56 133.74 38.03 133.74C35.94 133.74 34.46 135.26 34.46 137.39V137.47C34.46 139.58 35.74 141.1 38.03 141.1Z" fill="black"/>
<path d="M53.82 141H58.2V139.94H55.15V133.85H53.82V141Z" fill="black"/>
<path d="M70.27 141H71.52L72.08 139.23H74.81L75.38 141H76.76L74.4 133.85H72.66L70.27 141ZM73.45 134.94L74.5 138.26H72.39L73.45 134.94Z" fill="black"/>
<path d="M88.82 141H90.97C93.48 141 94.69 139.52 94.69 137.44V137.35C94.69 135.27 93.48 133.85 90.99 133.85H88.82V141ZM90.15 139.95V134.9H90.92C92.6 134.9 93.3 135.83 93.3 137.37V137.45C93.3 139.03 92.53 139.95 90.93 139.95H90.15Z" fill="black"/>
<rect x="50" y="150" width="28" height="16" rx="8" fill="#BFE069"/>
<path d="M59.8193 157.612C59.5027 157.16 58.8792 157.05 58.4267 157.366C57.9742 157.683 57.864 158.306 58.1807 158.759L59.8193 157.612ZM61.2755 161.438L60.4561 162.011L60.4561 162.011L61.2755 161.438ZM62.9235 161.422L62.0934 160.865L62.0934 160.865L62.9235 161.422ZM69.1634 153.926C69.4714 153.468 69.3494 152.846 68.8909 152.539C68.4325 152.231 67.8112 152.353 67.5032 152.811L69.1634 153.926ZM58.1807 158.759L60.4561 162.011L62.0948 160.864L59.8193 157.612L58.1807 158.759ZM63.7536 161.98L69.1634 153.926L67.5032 152.811L62.0934 160.865L63.7536 161.98ZM60.4561 162.011C61.2609 163.161 62.9696 163.147 63.7536 161.98L62.0934 160.865C62.0912 160.868 62.0905 160.868 62.0915 160.867C62.0925 160.867 62.0938 160.866 62.0951 160.865C62.0973 160.864 62.0972 160.865 62.0946 160.865C62.092 160.865 62.0916 160.864 62.0937 160.865C62.0948 160.865 62.096 160.866 62.0969 160.867C62.0979 160.868 62.097 160.867 62.0948 160.864L60.4561 162.011Z" fill="black"/>
</svg>
