<svg width="129" height="170" viewBox="0 0 129 170" fill="none" xmlns="http://www.w3.org/2000/svg">
<line x1="107.25" y1="75" x2="107.25" y2="87" stroke="#BFE069" stroke-width="2.5"/>
<path d="M128.25 102.5C128.25 113.374 118.994 122.25 107.5 122.25C96.006 122.25 86.75 113.374 86.75 102.5C86.75 91.6256 96.006 82.75 107.5 82.75C118.994 82.75 128.25 91.6256 128.25 102.5Z" fill="white" stroke="#BFE069" stroke-width="1.5"/>
<path d="M33.75 16.5C33.75 24.8541 26.5449 31.75 17.5 31.75C8.45506 31.75 1.25 24.8541 1.25 16.5C1.25 8.14593 8.45506 1.25 17.5 1.25C26.5449 1.25 33.75 8.14593 33.75 16.5Z" fill="#BFE069" stroke="#BFE069" stroke-width="2.5"/>
<path d="M78.75 16.5C78.75 24.8541 71.5449 31.75 62.5 31.75C53.4551 31.75 46.25 24.8541 46.25 16.5C46.25 8.14593 53.4551 1.25 62.5 1.25C71.5449 1.25 78.75 8.14593 78.75 16.5Z" fill="#BFE069" stroke="#BFE069" stroke-width="2.5"/>
<path d="M123.75 59.5C123.75 67.8541 116.545 74.75 107.5 74.75C98.4551 74.75 91.25 67.8541 91.25 59.5C91.25 51.1459 98.4551 44.25 107.5 44.25C116.545 44.25 123.75 51.1459 123.75 59.5Z" fill="#BFE069" stroke="#BFE069" stroke-width="2.5"/>
<path d="M123.75 102.5C123.75 110.854 116.545 117.75 107.5 117.75C98.4551 117.75 91.25 110.854 91.25 102.5C91.25 94.1459 98.4551 87.25 107.5 87.25C116.545 87.25 123.75 94.1459 123.75 102.5Z" fill="#BFE069" stroke="#BFE069" stroke-width="2.5"/>
<line x1="33.9951" y1="17" x2="46.028" y2="17" stroke="#BFE069" stroke-width="2.5"/>
<line x1="75.8839" y1="26.1161" x2="96.8839" y2="47.1161" stroke="#BFE069" stroke-width="2.5"/>
<path d="M124.25 16.5C124.25 25.1575 116.793 32.25 107.5 32.25C98.207 32.25 90.75 25.1575 90.75 16.5C90.75 7.84248 98.207 0.75 107.5 0.75C116.793 0.75 124.25 7.84248 124.25 16.5Z" fill="white" stroke="#EFEDED" stroke-width="1.5"/>
<path d="M34.25 59.5C34.25 68.1575 26.793 75.25 17.5 75.25C8.20704 75.25 0.75 68.1575 0.75 59.5C0.75 50.8425 8.20704 43.75 17.5 43.75C26.793 43.75 34.25 50.8425 34.25 59.5Z" fill="white" stroke="#EFEDED" stroke-width="1.5"/>
<path d="M79.25 59.5C79.25 68.1575 71.793 75.25 62.5 75.25C53.207 75.25 45.75 68.1575 45.75 59.5C45.75 50.8425 53.207 43.75 62.5 43.75C71.793 43.75 79.25 50.8425 79.25 59.5Z" fill="white" stroke="#EFEDED" stroke-width="1.5"/>
<path d="M34 102.5C34 111.006 26.6689 118 17.5 118C8.33105 118 1 111.006 1 102.5C1 93.9942 8.33105 87 17.5 87C26.6689 87 34 93.9942 34 102.5Z" fill="white" stroke="#EFEDED" stroke-width="2"/>
<path d="M79 102.5C79 111.006 71.6689 118 62.5 118C53.3311 118 46 111.006 46 102.5C46 93.9942 53.3311 87 62.5 87C71.6689 87 79 93.9942 79 102.5Z" stroke="#EFEDED" stroke-width="2"/>
<path d="M17.016 20.496C17.7413 20.496 18.2693 20.3733 18.6 20.128C18.9307 19.8827 19.096 19.536 19.096 19.088C19.096 18.8213 19.0373 18.592 18.92 18.4C18.8133 18.208 18.6533 18.0373 18.44 17.888C18.2373 17.728 17.9867 17.584 17.688 17.456C17.3893 17.3173 17.048 17.184 16.664 17.056C16.28 16.9173 15.9067 16.768 15.544 16.608C15.192 16.4373 14.8773 16.2293 14.6 15.984C14.3333 15.7387 14.1147 15.4453 13.944 15.104C13.784 14.7627 13.704 14.352 13.704 13.872C13.704 12.8693 14.0507 12.0853 14.744 11.52C15.4373 10.944 16.3813 10.656 17.576 10.656C18.2693 10.656 18.8827 10.736 19.416 10.896C19.96 11.0453 20.3867 11.2107 20.696 11.392L20.072 13.024C19.7093 12.8213 19.3093 12.6667 18.872 12.56C18.4453 12.4533 18.0027 12.4 17.544 12.4C17 12.4 16.5733 12.512 16.264 12.736C15.9653 12.96 15.816 13.2747 15.816 13.68C15.816 13.9253 15.864 14.1387 15.96 14.32C16.0667 14.4907 16.2107 14.6453 16.392 14.784C16.584 14.9227 16.8027 15.0507 17.048 15.168C17.304 15.2853 17.5813 15.3973 17.88 15.504C18.4027 15.696 18.8667 15.8933 19.272 16.096C19.688 16.288 20.0347 16.5227 20.312 16.8C20.6 17.0667 20.8187 17.3867 20.968 17.76C21.1173 18.1227 21.192 18.5653 21.192 19.088C21.192 20.0907 20.8347 20.8693 20.12 21.424C19.416 21.968 18.3813 22.24 17.016 22.24C16.5573 22.24 16.136 22.208 15.752 22.144C15.3787 22.0907 15.0427 22.0213 14.744 21.936C14.456 21.8507 14.2053 21.7653 13.992 21.68C13.7787 21.584 13.608 21.4987 13.48 21.424L14.072 19.776C14.36 19.936 14.7493 20.096 15.24 20.256C15.7307 20.416 16.3227 20.496 17.016 20.496Z" fill="black"/>
<path d="M61.464 10.8C63.0747 10.8 64.3067 11.0933 65.16 11.68C66.024 12.2667 66.456 13.184 66.456 14.432C66.456 15.0827 66.3387 15.6427 66.104 16.112C65.88 16.5707 65.5493 16.9493 65.112 17.248C64.6747 17.536 64.1413 17.7493 63.512 17.888C62.8827 18.0267 62.1627 18.096 61.352 18.096H60.344V22H58.328V11.072C58.7973 10.9653 59.3147 10.896 59.88 10.864C60.456 10.8213 60.984 10.8 61.464 10.8ZM61.608 12.544C61.096 12.544 60.6747 12.56 60.344 12.592V16.368H61.32C62.2907 16.368 63.0373 16.2347 63.56 15.968C64.0827 15.6907 64.344 15.1733 64.344 14.416C64.344 14.0533 64.2747 13.7493 64.136 13.504C63.9973 13.2587 63.8053 13.0667 63.56 12.928C63.3147 12.7893 63.0213 12.6933 62.68 12.64C62.3493 12.576 61.992 12.544 61.608 12.544Z" fill="black"/>
<path d="M106.328 53.912H108.344V65H106.328V53.912Z" fill="black"/>
<path d="M111.336 106.256V108H104.328V96.912H106.344V106.256H111.336Z" fill="black"/>
<rect x="47" y="154" width="28" height="16" rx="8" fill="#BFE069"/>
<path d="M56.8193 161.612C56.5027 161.16 55.8792 161.05 55.4267 161.366C54.9742 161.683 54.864 162.306 55.1807 162.759L56.8193 161.612ZM58.2755 165.438L57.4561 166.011L57.4561 166.011L58.2755 165.438ZM59.9235 165.422L59.0934 164.865L59.0934 164.865L59.9235 165.422ZM66.1634 157.926C66.4714 157.468 66.3494 156.846 65.8909 156.539C65.4325 156.231 64.8112 156.353 64.5032 156.811L66.1634 157.926ZM55.1807 162.759L57.4561 166.011L59.0948 164.864L56.8193 161.612L55.1807 162.759ZM60.7536 165.98L66.1634 157.926L64.5032 156.811L59.0934 164.865L60.7536 165.98ZM57.4561 166.011C58.2609 167.161 59.9696 167.147 60.7536 165.98L59.0934 164.865C59.0912 164.868 59.0905 164.868 59.0915 164.867C59.0925 164.867 59.0938 164.866 59.0951 164.865C59.0973 164.864 59.0972 164.865 59.0946 164.865C59.092 164.865 59.0916 164.864 59.0937 164.865C59.0948 164.865 59.096 164.866 59.0969 164.867C59.0979 164.868 59.097 164.867 59.0948 164.864L57.4561 166.011Z" fill="black"/>
<line y1="150.5" x2="125" y2="150.5" stroke="black"/>
<rect x="19" y="132" width="16" height="14" rx="3" fill="#BFE069"/>
<rect x="37" y="132" width="16" height="14" rx="3" fill="#BFE069"/>
<rect x="55" y="132" width="16" height="14" rx="3" fill="#BFE069"/>
<rect x="73" y="132" width="16" height="14" rx="3" fill="#BFE069"/>
<rect x="91" y="132" width="16" height="14" rx="3" fill="#BFE069"/>
<path d="M27.012 141.872C27.556 141.872 27.952 141.78 28.2 141.596C28.448 141.412 28.572 141.152 28.572 140.816C28.572 140.616 28.528 140.444 28.44 140.3C28.36 140.156 28.24 140.028 28.08 139.916C27.928 139.796 27.74 139.688 27.516 139.592C27.292 139.488 27.036 139.388 26.748 139.292C26.46 139.188 26.18 139.076 25.908 138.956C25.644 138.828 25.408 138.672 25.2 138.488C25 138.304 24.836 138.084 24.708 137.828C24.588 137.572 24.528 137.264 24.528 136.904C24.528 136.152 24.788 135.564 25.308 135.14C25.828 134.708 26.536 134.492 27.432 134.492C27.952 134.492 28.412 134.552 28.812 134.672C29.22 134.784 29.54 134.908 29.772 135.044L29.304 136.268C29.032 136.116 28.732 136 28.404 135.92C28.084 135.84 27.752 135.8 27.408 135.8C27 135.8 26.68 135.884 26.448 136.052C26.224 136.22 26.112 136.456 26.112 136.76C26.112 136.944 26.148 137.104 26.22 137.24C26.3 137.368 26.408 137.484 26.544 137.588C26.688 137.692 26.852 137.788 27.036 137.876C27.228 137.964 27.436 138.048 27.66 138.128C28.052 138.272 28.4 138.42 28.704 138.572C29.016 138.716 29.276 138.892 29.484 139.1C29.7 139.3 29.864 139.54 29.976 139.82C30.088 140.092 30.144 140.424 30.144 140.816C30.144 141.568 29.876 142.152 29.34 142.568C28.812 142.976 28.036 143.18 27.012 143.18C26.668 143.18 26.352 143.156 26.064 143.108C25.784 143.068 25.532 143.016 25.308 142.952C25.092 142.888 24.904 142.824 24.744 142.76C24.584 142.688 24.456 142.624 24.36 142.568L24.804 141.332C25.02 141.452 25.312 141.572 25.68 141.692C26.048 141.812 26.492 141.872 27.012 141.872Z" fill="black"/>
<path d="M44.348 134.6C45.556 134.6 46.48 134.82 47.12 135.26C47.768 135.7 48.092 136.388 48.092 137.324C48.092 137.812 48.004 138.232 47.828 138.584C47.66 138.928 47.412 139.212 47.084 139.436C46.756 139.652 46.356 139.812 45.884 139.916C45.412 140.02 44.872 140.072 44.264 140.072H43.508V143H41.996V134.804C42.348 134.724 42.736 134.672 43.16 134.648C43.592 134.616 43.988 134.6 44.348 134.6ZM44.456 135.908C44.072 135.908 43.756 135.92 43.508 135.944V138.776H44.24C44.968 138.776 45.528 138.676 45.92 138.476C46.312 138.268 46.508 137.88 46.508 137.312C46.508 137.04 46.456 136.812 46.352 136.628C46.248 136.444 46.104 136.3 45.92 136.196C45.736 136.092 45.516 136.02 45.26 135.98C45.012 135.932 44.744 135.908 44.456 135.908Z" fill="black"/>
<path d="M61.996 134.684H63.508V143H61.996V134.684Z" fill="black"/>
<path d="M83.252 141.692V143H77.996V134.684H79.508V141.692H83.252Z" fill="black"/>
<path d="M102.252 141.692V143H96.996V134.684H98.508V141.692H102.252Z" fill="black"/>
</svg>
