<svg width="129" height="170" viewBox="0 0 129 170" fill="none" xmlns="http://www.w3.org/2000/svg">
<line x1="107.25" y1="75" x2="107.25" y2="87" stroke="#BFE069" stroke-width="2.5"/>
<path d="M33.75 16.5C33.75 24.8541 26.5449 31.75 17.5 31.75C8.45506 31.75 1.25 24.8541 1.25 16.5C1.25 8.14593 8.45506 1.25 17.5 1.25C26.5449 1.25 33.75 8.14593 33.75 16.5Z" fill="#BFE069" stroke="#BFE069" stroke-width="2.5"/>
<path d="M78.75 16.5C78.75 24.8541 71.5449 31.75 62.5 31.75C53.4551 31.75 46.25 24.8541 46.25 16.5C46.25 8.14593 53.4551 1.25 62.5 1.25C71.5449 1.25 78.75 8.14593 78.75 16.5Z" fill="#BFE069" stroke="#BFE069" stroke-width="2.5"/>
<path d="M123.75 59.5C123.75 67.8541 116.545 74.75 107.5 74.75C98.4551 74.75 91.25 67.8541 91.25 59.5C91.25 51.1459 98.4551 44.25 107.5 44.25C116.545 44.25 123.75 51.1459 123.75 59.5Z" fill="#BFE069" stroke="#BFE069" stroke-width="2.5"/>
<line x1="33.9951" y1="17" x2="46.028" y2="17" stroke="#BFE069" stroke-width="2.5"/>
<line x1="75.8839" y1="26.1161" x2="96.8839" y2="47.1161" stroke="#BFE069" stroke-width="2.5"/>
<path d="M124.25 16.5C124.25 25.1575 116.793 32.25 107.5 32.25C98.207 32.25 90.75 25.1575 90.75 16.5C90.75 7.84248 98.207 0.75 107.5 0.75C116.793 0.75 124.25 7.84248 124.25 16.5Z" fill="white" stroke="#EFEDED" stroke-width="1.5"/>
<path d="M34.25 59.5C34.25 68.1575 26.793 75.25 17.5 75.25C8.20704 75.25 0.75 68.1575 0.75 59.5C0.75 50.8425 8.20704 43.75 17.5 43.75C26.793 43.75 34.25 50.8425 34.25 59.5Z" fill="white" stroke="#EFEDED" stroke-width="1.5"/>
<path d="M79.25 59.5C79.25 68.1575 71.793 75.25 62.5 75.25C53.207 75.25 45.75 68.1575 45.75 59.5C45.75 50.8425 53.207 43.75 62.5 43.75C71.793 43.75 79.25 50.8425 79.25 59.5Z" fill="white" stroke="#EFEDED" stroke-width="1.5"/>
<path d="M33.75 102.5C33.75 110.854 26.5449 117.75 17.5 117.75C8.45506 117.75 1.25 110.854 1.25 102.5C1.25 94.1459 8.45506 87.25 17.5 87.25C26.5449 87.25 33.75 94.1459 33.75 102.5Z" fill="#BFE069" stroke="#BFE069" stroke-width="2.5"/>
<path d="M79 102.5C79 111.006 71.6689 118 62.5 118C53.3311 118 46 111.006 46 102.5C46 93.9942 53.3311 87 62.5 87C71.6689 87 79 93.9942 79 102.5Z" fill="#5893FF" stroke="#5893FF" stroke-width="2"/>
<path d="M58.976 102.448C58.976 103.056 59.0507 103.611 59.2 104.112C59.3493 104.603 59.5627 105.024 59.84 105.376C60.128 105.717 60.4747 105.984 60.88 106.176C61.2853 106.368 61.744 106.464 62.256 106.464C62.7573 106.464 63.2107 106.368 63.616 106.176C64.0213 105.984 64.3627 105.717 64.64 105.376C64.928 105.024 65.1467 104.603 65.296 104.112C65.4453 103.611 65.52 103.056 65.52 102.448C65.52 101.84 65.4453 101.291 65.296 100.8C65.1467 100.299 64.928 99.8773 64.64 99.536C64.3627 99.184 64.0213 98.912 63.616 98.72C63.2107 98.528 62.7573 98.432 62.256 98.432C61.744 98.432 61.2853 98.528 60.88 98.72C60.4747 98.912 60.128 99.184 59.84 99.536C59.5627 99.888 59.3493 100.309 59.2 100.8C59.0507 101.291 58.976 101.84 58.976 102.448ZM67.632 102.448C67.632 103.397 67.488 104.235 67.2 104.96C66.9227 105.685 66.5387 106.293 66.048 106.784C65.568 107.264 65.0027 107.627 64.352 107.872C63.7013 108.117 63.008 108.24 62.272 108.24C61.536 108.24 60.8373 108.117 60.176 107.872C59.5253 107.627 58.9547 107.264 58.464 106.784C57.984 106.293 57.6 105.685 57.312 104.96C57.024 104.235 56.88 103.397 56.88 102.448C56.88 101.499 57.024 100.667 57.312 99.952C57.6 99.2267 57.9893 98.6187 58.48 98.128C58.9813 97.6373 59.5573 97.2693 60.208 97.024C60.8587 96.7787 61.5467 96.656 62.272 96.656C62.9973 96.656 63.6853 96.7787 64.336 97.024C64.9867 97.2693 65.552 97.6373 66.032 98.128C66.5227 98.6187 66.912 99.2267 67.2 99.952C67.488 100.667 67.632 101.499 67.632 102.448Z" fill="black"/>
<path d="M17.016 20.496C17.7413 20.496 18.2693 20.3733 18.6 20.128C18.9307 19.8827 19.096 19.536 19.096 19.088C19.096 18.8213 19.0373 18.592 18.92 18.4C18.8133 18.208 18.6533 18.0373 18.44 17.888C18.2373 17.728 17.9867 17.584 17.688 17.456C17.3893 17.3173 17.048 17.184 16.664 17.056C16.28 16.9173 15.9067 16.768 15.544 16.608C15.192 16.4373 14.8773 16.2293 14.6 15.984C14.3333 15.7387 14.1147 15.4453 13.944 15.104C13.784 14.7627 13.704 14.352 13.704 13.872C13.704 12.8693 14.0507 12.0853 14.744 11.52C15.4373 10.944 16.3813 10.656 17.576 10.656C18.2693 10.656 18.8827 10.736 19.416 10.896C19.96 11.0453 20.3867 11.2107 20.696 11.392L20.072 13.024C19.7093 12.8213 19.3093 12.6667 18.872 12.56C18.4453 12.4533 18.0027 12.4 17.544 12.4C17 12.4 16.5733 12.512 16.264 12.736C15.9653 12.96 15.816 13.2747 15.816 13.68C15.816 13.9253 15.864 14.1387 15.96 14.32C16.0667 14.4907 16.2107 14.6453 16.392 14.784C16.584 14.9227 16.8027 15.0507 17.048 15.168C17.304 15.2853 17.5813 15.3973 17.88 15.504C18.4027 15.696 18.8667 15.8933 19.272 16.096C19.688 16.288 20.0347 16.5227 20.312 16.8C20.6 17.0667 20.8187 17.3867 20.968 17.76C21.1173 18.1227 21.192 18.5653 21.192 19.088C21.192 20.0907 20.8347 20.8693 20.12 21.424C19.416 21.968 18.3813 22.24 17.016 22.24C16.5573 22.24 16.136 22.208 15.752 22.144C15.3787 22.0907 15.0427 22.0213 14.744 21.936C14.456 21.8507 14.2053 21.7653 13.992 21.68C13.7787 21.584 13.608 21.4987 13.48 21.424L14.072 19.776C14.36 19.936 14.7493 20.096 15.24 20.256C15.7307 20.416 16.3227 20.496 17.016 20.496Z" fill="black"/>
<path d="M62.464 10.8C64.0747 10.8 65.3067 11.0933 66.16 11.68C67.024 12.2667 67.456 13.184 67.456 14.432C67.456 15.0827 67.3387 15.6427 67.104 16.112C66.88 16.5707 66.5493 16.9493 66.112 17.248C65.6747 17.536 65.1413 17.7493 64.512 17.888C63.8827 18.0267 63.1627 18.096 62.352 18.096H61.344V22H59.328V11.072C59.7973 10.9653 60.3147 10.896 60.88 10.864C61.456 10.8213 61.984 10.8 62.464 10.8ZM62.608 12.544C62.096 12.544 61.6747 12.56 61.344 12.592V16.368H62.32C63.2907 16.368 64.0373 16.2347 64.56 15.968C65.0827 15.6907 65.344 15.1733 65.344 14.416C65.344 14.0533 65.2747 13.7493 65.136 13.504C64.9973 13.2587 64.8053 13.0667 64.56 12.928C64.3147 12.7893 64.0213 12.6933 63.68 12.64C63.3493 12.576 62.992 12.544 62.608 12.544Z" fill="black"/>
<path d="M106.328 53.912H108.344V65H106.328V53.912Z" fill="black"/>
<path d="M13.328 108V96.912H20.448V98.624H15.344V101.36H19.888V103.04H15.344V106.288H20.832V108H13.328Z" fill="black"/>
<rect x="48" y="154" width="28" height="16" rx="8" fill="#5893FF"/>
<line y1="150.5" x2="129" y2="150.5" stroke="black"/>
<rect x="2" y="132" width="16" height="14" rx="3" fill="#BFE069"/>
<rect x="20" y="132" width="16" height="14" rx="3" fill="#BFE069"/>
<rect x="38" y="132" width="16" height="14" rx="3" fill="#BFE069"/>
<rect x="56" y="132" width="16" height="14" rx="3" fill="#BFE069"/>
<rect x="74" y="132" width="16" height="14" rx="3" fill="#BFE069"/>
<rect x="92" y="132" width="16" height="14" rx="3" fill="#5893FF"/>
<rect x="110" y="132" width="16" height="14" rx="3" fill="#BFE069"/>
<path d="M10.012 141.872C10.556 141.872 10.952 141.78 11.2 141.596C11.448 141.412 11.572 141.152 11.572 140.816C11.572 140.616 11.528 140.444 11.44 140.3C11.36 140.156 11.24 140.028 11.08 139.916C10.928 139.796 10.74 139.688 10.516 139.592C10.292 139.488 10.036 139.388 9.748 139.292C9.46 139.188 9.18 139.076 8.908 138.956C8.644 138.828 8.408 138.672 8.2 138.488C8 138.304 7.836 138.084 7.708 137.828C7.588 137.572 7.528 137.264 7.528 136.904C7.528 136.152 7.788 135.564 8.308 135.14C8.828 134.708 9.536 134.492 10.432 134.492C10.952 134.492 11.412 134.552 11.812 134.672C12.22 134.784 12.54 134.908 12.772 135.044L12.304 136.268C12.032 136.116 11.732 136 11.404 135.92C11.084 135.84 10.752 135.8 10.408 135.8C10 135.8 9.68 135.884 9.448 136.052C9.224 136.22 9.112 136.456 9.112 136.76C9.112 136.944 9.148 137.104 9.22 137.24C9.3 137.368 9.408 137.484 9.544 137.588C9.688 137.692 9.852 137.788 10.036 137.876C10.228 137.964 10.436 138.048 10.66 138.128C11.052 138.272 11.4 138.42 11.704 138.572C12.016 138.716 12.276 138.892 12.484 139.1C12.7 139.3 12.864 139.54 12.976 139.82C13.088 140.092 13.144 140.424 13.144 140.816C13.144 141.568 12.876 142.152 12.34 142.568C11.812 142.976 11.036 143.18 10.012 143.18C9.668 143.18 9.352 143.156 9.064 143.108C8.784 143.068 8.532 143.016 8.308 142.952C8.092 142.888 7.904 142.824 7.744 142.76C7.584 142.688 7.456 142.624 7.36 142.568L7.804 141.332C8.02 141.452 8.312 141.572 8.68 141.692C9.048 141.812 9.492 141.872 10.012 141.872Z" fill="black"/>
<path d="M27.348 134.6C28.556 134.6 29.48 134.82 30.12 135.26C30.768 135.7 31.092 136.388 31.092 137.324C31.092 137.812 31.004 138.232 30.828 138.584C30.66 138.928 30.412 139.212 30.084 139.436C29.756 139.652 29.356 139.812 28.884 139.916C28.412 140.02 27.872 140.072 27.264 140.072H26.508V143H24.996V134.804C25.348 134.724 25.736 134.672 26.16 134.648C26.592 134.616 26.988 134.6 27.348 134.6ZM27.456 135.908C27.072 135.908 26.756 135.92 26.508 135.944V138.776H27.24C27.968 138.776 28.528 138.676 28.92 138.476C29.312 138.268 29.508 137.88 29.508 137.312C29.508 137.04 29.456 136.812 29.352 136.628C29.248 136.444 29.104 136.3 28.92 136.196C28.736 136.092 28.516 136.02 28.26 135.98C28.012 135.932 27.744 135.908 27.456 135.908Z" fill="black"/>
<path d="M44.996 134.684H46.508V143H44.996V134.684Z" fill="black"/>
<path d="M67.252 141.692V143H61.996V134.684H63.508V141.692H67.252Z" fill="black"/>
<path d="M85.252 141.692V143H79.996V134.684H81.508V141.692H85.252Z" fill="black"/>
<path d="M97.232 138.836C97.232 139.292 97.288 139.708 97.4 140.084C97.512 140.452 97.672 140.768 97.88 141.032C98.096 141.288 98.356 141.488 98.66 141.632C98.964 141.776 99.308 141.848 99.692 141.848C100.068 141.848 100.408 141.776 100.712 141.632C101.016 141.488 101.272 141.288 101.48 141.032C101.696 140.768 101.86 140.452 101.972 140.084C102.084 139.708 102.14 139.292 102.14 138.836C102.14 138.38 102.084 137.968 101.972 137.6C101.86 137.224 101.696 136.908 101.48 136.652C101.272 136.388 101.016 136.184 100.712 136.04C100.408 135.896 100.068 135.824 99.692 135.824C99.308 135.824 98.964 135.896 98.66 136.04C98.356 136.184 98.096 136.388 97.88 136.652C97.672 136.916 97.512 137.232 97.4 137.6C97.288 137.968 97.232 138.38 97.232 138.836ZM103.724 138.836C103.724 139.548 103.616 140.176 103.4 140.72C103.192 141.264 102.904 141.72 102.536 142.088C102.176 142.448 101.752 142.72 101.264 142.904C100.776 143.088 100.256 143.18 99.704 143.18C99.152 143.18 98.628 143.088 98.132 142.904C97.644 142.72 97.216 142.448 96.848 142.088C96.488 141.72 96.2 141.264 95.984 140.72C95.768 140.176 95.66 139.548 95.66 138.836C95.66 138.124 95.768 137.5 95.984 136.964C96.2 136.42 96.492 135.964 96.86 135.596C97.236 135.228 97.668 134.952 98.156 134.768C98.644 134.584 99.16 134.492 99.704 134.492C100.248 134.492 100.764 134.584 101.252 134.768C101.74 134.952 102.164 135.228 102.524 135.596C102.892 135.964 103.184 136.42 103.4 136.964C103.616 137.5 103.724 138.124 103.724 138.836Z" fill="black"/>
<path d="M114.996 143V134.684H120.336V135.968H116.508V138.02H119.916V139.28H116.508V141.716H120.624V143H114.996Z" fill="black"/>
<line x1="91" y1="102.25" x2="34" y2="102.25" stroke="#BFE069" stroke-width="2.5"/>
<path d="M128.25 102.5C128.25 113.374 118.994 122.25 107.5 122.25C96.006 122.25 86.75 113.374 86.75 102.5C86.75 91.6256 96.006 82.75 107.5 82.75C118.994 82.75 128.25 91.6256 128.25 102.5Z" fill="white" stroke="#BFE069" stroke-width="1.5"/>
<path d="M123.75 102.5C123.75 110.854 116.545 117.75 107.5 117.75C98.4551 117.75 91.25 110.854 91.25 102.5C91.25 94.1459 98.4551 87.25 107.5 87.25C116.545 87.25 123.75 94.1459 123.75 102.5Z" fill="#BFE069" stroke="#BFE069" stroke-width="2.5"/>
<path d="M111.336 105.256V107H104.328V95.912H106.344V105.256H111.336Z" fill="black"/>
<path d="M63.052 159.902C63.052 160.677 63.024 161.386 62.968 162.03C62.912 162.674 62.842 163.323 62.758 163.976H61.554C61.4607 163.323 61.386 162.674 61.33 162.03C61.274 161.377 61.246 160.667 61.246 159.902V157.298H63.052V159.902ZM63.262 166.076C63.262 166.403 63.1547 166.669 62.94 166.874C62.7253 167.079 62.4593 167.182 62.142 167.182C61.834 167.182 61.568 167.079 61.344 166.874C61.1293 166.669 61.022 166.403 61.022 166.076C61.022 165.749 61.1293 165.483 61.344 165.278C61.568 165.063 61.834 164.956 62.142 164.956C62.4593 164.956 62.7253 165.063 62.94 165.278C63.1547 165.483 63.262 165.749 63.262 166.076Z" fill="black"/>
</svg>
